# xmcd
#
# Track frame offsets:
#	150
#	15408
#	41790
#	63420
#	85285
#	110295
#	133490
#	154448
#	172098
#	193758
#	213123
#	238693
#	258638
#	278760
#
# Disc length: 4000 seconds
#
# Revision: 1
# Processed by: cddbd v1.5.2PL0 Copyright (c) Steve Scherf et al.
# Submitted via: audiograbber 1.83.01
#
DISCID=cf0f9e0e
DTITLE=Graham Bell - All The Romances
DYEAR=1993
DGENRE=Blues
TTITLE0=Oh Why
TTITLE1=The Way I Am
TTITLE2=I Have Given
TTITLE3=Can't Lay Down
TTITLE4=All The Romances
TTITLE5=Young Man
TTITLE6=Beautiful Woman
TTITLE7=Long Way Down
TTITLE8=Keep On Speaking
TTITLE9=Mean Streak
TTITLE10=Fallen Idol
TTITLE11=Fine Young Girl
TTITLE12=Permanent Thing
TTITLE13=Tell Nobody
EXTD=
EXTT0=
EXTT1=
EXTT2=
EXTT3=
EXTT4=
EXTT5=
EXTT6=
EXTT7=
EXTT8=
EXTT9=
EXTT10=
EXTT11=
EXTT12=
EXTT13=
PLAYORDER=
